<svg width="48" height="56" viewBox="0 0 48 56" fill="none" xmlns="http://www.w3.org/2000/svg">
<path d="M24.0534 0.192673C24.2026 0.326746 24.3863 0.405275 24.5566 0.504871C26.1543 1.4338 27.7538 2.35699 29.3534 3.28209C31.5557 4.55578 33.7599 5.82948 35.9621 7.10317C36.8002 7.58775 37.6382 8.07424 38.4744 8.55882C38.4878 8.56648 38.4993 8.57414 38.5126 8.5818C38.6638 8.67948 38.6657 8.71204 38.5069 8.80015C37.8449 9.16214 37.181 9.52222 36.517 9.88231C35.5182 10.4243 34.5195 10.9664 33.5207 11.5103C33.1801 11.6961 33.1801 11.7057 32.8491 11.5142C31.7298 10.8725 30.6124 10.2271 29.4931 9.58351C28.2609 8.87484 27.0268 8.16426 25.7945 7.45559C25.2741 7.15488 24.7479 6.86184 24.2332 6.55155C24.0649 6.45004 23.9309 6.45387 23.7664 6.54772C23.1426 6.90589 22.515 7.25256 21.8875 7.60498C20.9614 8.12595 20.0334 8.64692 19.1074 9.16789C17.8235 9.88997 16.5377 10.612 15.2538 11.3341C15.0874 11.428 14.919 11.5161 14.7545 11.6118C14.6492 11.6731 14.5574 11.677 14.4483 11.6118C13.3214 10.9683 12.1906 10.3305 11.0617 9.69077C10.5585 9.40539 10.0533 9.12192 9.54821 8.83654C9.5042 8.81164 9.45637 8.78865 9.41619 8.75609C9.36453 8.71587 9.36453 8.66799 9.41619 8.62777C9.45637 8.59712 9.50229 8.57222 9.5463 8.54541C10.5432 7.96698 11.5381 7.39047 12.535 6.81395C13.6064 6.19339 14.6798 5.57091 15.7532 4.95034C17.238 4.09036 18.7247 3.23421 20.2094 2.37423C21.2695 1.76133 22.3295 1.14651 23.3875 0.529771C23.5693 0.422512 23.7702 0.343984 23.9233 0.188843H24.0553L24.0534 0.192673Z" fill="#F0B91C"/>
<path d="M23.7012 55.2621C23.1138 54.9021 22.5264 54.542 21.939 54.1819C20.8694 53.5288 19.7998 52.8718 18.7245 52.2264C18.5294 52.1095 18.4624 51.9697 18.4624 51.7456C18.4701 49.8954 18.4662 48.0452 18.4662 46.1969C18.4662 46.1682 18.4662 46.1375 18.4662 46.1088C18.472 45.8713 18.5007 45.8522 18.6997 45.9709C18.9656 46.128 19.2277 46.2869 19.4918 46.4478C20.8694 47.2867 22.247 48.1256 23.6227 48.9703C23.7471 49.0469 23.8351 49.0182 23.9423 48.9531C24.6617 48.5125 25.383 48.0758 26.1024 47.6353C26.9788 47.1009 27.8551 46.5666 28.7314 46.0303C28.7697 46.0073 28.806 45.9843 28.8443 45.9632C29.0318 45.8579 29.0662 45.8751 29.0662 46.0992C29.0682 47.0013 29.0662 47.9054 29.0662 48.8075C29.0662 49.7977 29.0624 50.7899 29.0701 51.7801C29.0701 51.9889 28.9974 52.1134 28.8194 52.2206C27.2371 53.1744 25.6605 54.1379 24.0819 55.0993C24.0073 55.1453 23.927 55.1836 23.8753 55.2602H23.6993L23.7012 55.2621Z" fill="#F0B91C"/>
<path d="M38.3614 19.2022C38.2294 19.3497 38.2274 19.3497 38.2274 19.5757C38.2274 21.4776 38.2274 23.3796 38.2274 25.2796C38.2274 25.3313 38.2217 25.383 38.2274 25.4328C38.2485 25.609 38.1758 25.7163 38.0208 25.8044C37.2478 26.2411 36.4825 26.6892 35.7133 27.1317C34.5825 27.7829 33.4498 28.4341 32.319 29.0834C31.3585 29.635 30.398 30.1847 29.4394 30.7402C29.0108 30.9892 29.0701 30.8915 29.0701 31.3646C29.0701 34.5957 29.0701 37.825 29.0701 41.0561C29.0701 41.1212 29.0644 41.1883 29.0701 41.2534C29.0912 41.4373 29.0127 41.5503 28.8539 41.6441C28.2856 41.9793 27.7231 42.326 27.1587 42.6688C26.0929 43.3181 25.0272 43.9636 23.9653 44.6186C23.8294 44.7029 23.7242 44.7144 23.5864 44.6301C21.9601 43.6341 20.3337 42.6382 18.6997 41.6537C18.5141 41.5426 18.4605 41.4143 18.4605 41.2093C18.4663 38.9914 18.4643 36.7754 18.4643 34.5574C18.4643 33.3757 18.4605 32.1939 18.4682 31.0121C18.4682 30.8015 18.3974 30.6808 18.2156 30.5754C16.4649 29.5756 14.718 28.5663 12.9692 27.5607C11.8441 26.9133 10.7172 26.2679 9.5921 25.6205C9.55957 25.6013 9.53087 25.5803 9.49835 25.565C9.35484 25.4998 9.30127 25.3945 9.30127 25.2336C9.3051 23.3106 9.3051 21.3857 9.30127 19.4627C9.30127 19.2942 9.36058 19.1984 9.50983 19.1161C10.4761 18.5759 11.4385 18.0281 12.4028 17.4823C13.0725 17.103 13.7441 16.7276 14.4119 16.3427C14.5439 16.268 14.6529 16.2699 14.7811 16.3427C15.2078 16.5859 15.6383 16.8253 16.0669 17.0647C17.0829 17.6355 18.1008 18.2063 19.1168 18.779C20.0065 19.2789 20.8943 19.7788 21.7821 20.2767C22.4537 20.6541 23.1272 21.0275 23.795 21.4087C23.9385 21.4911 24.0494 21.4911 24.1987 21.4049C26.223 20.2327 28.2531 19.0701 30.2813 17.9037C31.171 17.3923 32.0626 16.8809 32.9485 16.3618C33.1016 16.2718 33.2221 16.268 33.3752 16.3561C34.8714 17.2103 36.3715 18.0588 37.8716 18.9092C38.0361 19.003 38.2102 19.0777 38.3595 19.2022H38.3614Z" fill="#F0B91C"/>
<path d="M0.148045 33.0194C0.148045 30.2958 0.148045 27.5722 0.148045 24.8487C0.148045 24.7548 0.104038 24.6284 0.182485 24.5767C0.28198 24.5135 0.368081 24.6322 0.450356 24.6839C2.02314 25.6397 3.59401 26.5993 5.16679 27.5569C5.29116 27.6335 5.40787 27.7236 5.56477 27.7293C5.64321 27.7331 5.67957 27.7906 5.68722 27.8634C5.69487 27.9515 5.69487 28.0396 5.69487 28.1277C5.69487 31.4527 5.69487 34.7777 5.69487 38.1046C5.69487 38.1774 5.6987 38.2521 5.69487 38.3249C5.68722 38.4647 5.74462 38.5566 5.86899 38.6275C7.05336 39.3055 8.2339 39.9855 9.41636 40.6673C10.5472 41.3185 11.6799 41.9697 12.8107 42.621C13.421 42.9715 14.0276 43.3277 14.6417 43.6725C14.7967 43.7587 14.856 43.8659 14.856 44.0402C14.8522 45.9345 14.8541 47.8287 14.8541 49.723C14.8541 49.7441 14.8541 49.767 14.8541 49.7881C14.8426 49.9758 14.8025 50.0007 14.6417 49.9088C14.2648 49.6943 13.8917 49.4778 13.5167 49.2614C11.9363 48.3478 10.3558 47.4323 8.77538 46.5167C7.51831 45.7889 6.26314 45.0611 5.00607 44.3333C3.62271 43.5327 2.23743 42.734 0.854075 41.9334C0.670392 41.8261 0.488623 41.7169 0.301114 41.6135C0.193966 41.5541 0.140391 41.4698 0.146132 41.3454C0.149958 41.2726 0.146132 41.1979 0.146132 41.1251C0.146132 38.4245 0.146132 35.722 0.146132 33.0213L0.148045 33.0194Z" fill="#F0B91C"/>
<path d="M47.8637 32.8107C47.8637 35.5055 47.8637 38.1985 47.8637 40.8933C47.8637 40.9661 47.8599 41.0408 47.8637 41.1136C47.8694 41.2381 47.8158 41.3166 47.7068 41.3779C47.0505 41.7533 46.398 42.1326 45.7456 42.5118C44.5708 43.1917 43.3979 43.8698 42.2231 44.5497C40.8321 45.3541 39.443 46.1567 38.052 46.9611C36.904 47.6257 35.754 48.2922 34.606 48.9569C34.2004 49.1924 33.7947 49.428 33.3872 49.6636C33.3623 49.6789 33.3355 49.6943 33.3087 49.7038C33.2054 49.746 33.1729 49.7287 33.1595 49.6253C33.1538 49.5755 33.1557 49.5219 33.1557 49.4721C33.1557 47.5932 33.1576 45.7142 33.1519 43.8353C33.1519 43.6342 33.215 43.5173 33.391 43.4158C34.4453 42.8202 35.4919 42.213 36.5404 41.6097C37.6655 40.9623 38.7905 40.3149 39.9156 39.6675C40.6331 39.2538 41.3487 38.8344 42.0719 38.4302C42.2575 38.3268 42.3188 38.2004 42.3188 37.9935C42.313 34.7126 42.3149 31.4316 42.3149 28.1507C42.3149 28.0779 42.3188 28.0032 42.3149 27.9304C42.3073 27.7925 42.3609 27.6987 42.4814 27.624C43.7404 26.8425 44.9956 26.0572 46.2526 25.2719C46.6946 24.9961 47.1347 24.7184 47.5748 24.4407C47.5996 24.4254 47.6245 24.4081 47.6494 24.3928C47.8235 24.2875 47.856 24.3047 47.8637 24.5116C47.8656 24.5767 47.8637 24.6437 47.8637 24.7088C47.8637 27.4094 47.8637 30.112 47.8637 32.8126V32.8107Z" fill="#F0B91C"/>
<path d="M0.14787 17.0495C0.14787 16.109 0.15361 15.1705 0.144043 14.2301C0.144043 14.029 0.207184 13.9141 0.3813 13.8087C1.99426 12.8338 3.6034 11.8532 5.21062 10.8668C5.36752 10.771 5.48997 10.7634 5.65261 10.8591C7.35358 11.8589 9.05839 12.853 10.7613 13.847C10.7861 13.8624 10.8129 13.8758 10.8378 13.8911C10.9143 13.939 10.9182 13.9926 10.8416 14.0424C10.7555 14.0979 10.6675 14.1516 10.5795 14.2033C8.95124 15.1533 7.32488 16.1033 5.69279 17.0475C5.51102 17.1529 5.44022 17.2716 5.44022 17.4842C5.44788 19.3344 5.44596 21.1846 5.44214 23.0349C5.44214 23.1325 5.4938 23.2647 5.3943 23.3222C5.29481 23.3796 5.20871 23.2628 5.12643 23.213C3.54026 22.2515 1.95599 21.2842 0.367906 20.3247C0.201444 20.2251 0.144043 20.1063 0.145956 19.9148C0.15361 18.961 0.149783 18.0071 0.149783 17.0514L0.14787 17.0495Z" fill="#F0B91C"/>
<path d="M47.6398 17.0647C47.6398 17.9975 47.634 18.9302 47.6436 19.8611C47.6455 20.0775 47.5766 20.2116 47.3891 20.3246C46.4324 20.8973 45.4834 21.4815 44.5305 22.0599C43.8857 22.4525 43.2409 22.8471 42.5942 23.2378C42.5215 23.2819 42.4469 23.3719 42.3608 23.3202C42.2747 23.2685 42.3149 23.1593 42.3149 23.075C42.3149 21.2478 42.3149 19.4187 42.3149 17.5914C42.3149 17.5321 42.3111 17.4727 42.3149 17.4152C42.3283 17.2582 42.2651 17.1605 42.1274 17.0762C41.1286 16.4748 40.1356 15.8638 39.1387 15.2567C38.513 14.8755 37.8855 14.4944 37.2598 14.1132C37.2464 14.1055 37.2349 14.0979 37.2215 14.0902C37.0704 13.9887 37.0684 13.9561 37.2139 13.8604C37.3554 13.7684 37.499 13.6803 37.6425 13.5922C39.1215 12.692 40.6005 11.7957 42.0757 10.8878C42.2651 10.771 42.4067 10.771 42.5942 10.8878C44.1747 11.8608 45.7608 12.8242 47.3451 13.7895C47.3834 13.8125 47.4178 13.8393 47.458 13.8585C47.5938 13.9255 47.6417 14.0328 47.6398 14.1802C47.634 14.4809 47.6398 14.7817 47.6398 15.0824C47.6398 15.7431 47.6398 16.4039 47.6398 17.0647Z" fill="#F0B91C"/>
<path d="M24.0057 10.771C24.0861 10.7767 24.1511 10.8284 24.22 10.8706C24.9222 11.2958 25.6244 11.7229 26.3247 12.1519C27.2335 12.7054 28.1405 13.2609 29.0474 13.8144C29.2789 13.9561 29.2789 13.9906 29.0474 14.1266C27.3694 15.1053 25.6894 16.0822 24.0133 17.0685C23.8373 17.172 23.7091 17.1739 23.535 17.0666C21.9354 16.0841 20.3301 15.1092 18.7267 14.1304C18.4703 13.9734 18.4723 13.9676 18.7267 13.8163C20.2842 12.9046 21.8417 11.9968 23.4011 11.087C23.5407 11.0065 23.6785 10.9223 23.8182 10.8399C23.8756 10.8073 23.933 10.7729 24.0057 10.769V10.771Z" fill="#F0B91C"/>
<path d="M9.30756 33.0136C9.30756 32.0368 9.30756 31.0619 9.30756 30.0851C9.30756 30.0028 9.26547 29.8898 9.36114 29.8457C9.43767 29.8093 9.50847 29.8936 9.57543 29.9338C11.1922 30.9164 12.8052 31.9028 14.4239 32.8834C14.5731 32.9734 14.6363 33.0788 14.6363 33.255C14.6305 35.1492 14.6324 37.0416 14.6324 38.9358C14.6324 38.9512 14.6324 38.9646 14.6324 38.9799C14.6248 39.2116 14.5961 39.2289 14.3952 39.114C12.9334 38.2865 11.4735 37.4591 10.0117 36.6336C9.85287 36.5436 9.69597 36.4459 9.52951 36.3693C9.35922 36.2908 9.30182 36.172 9.30374 35.9862C9.31139 35.0477 9.30756 34.1073 9.30756 33.1688C9.30756 33.1171 9.30756 33.0654 9.30756 33.0156V33.0136Z" fill="#F0B91C"/>
<path d="M38.4519 33.1689C38.4519 34.1016 38.4461 35.0344 38.4557 35.9652C38.4576 36.1663 38.3945 36.2813 38.2146 36.3809C36.9843 37.0665 35.7617 37.7618 34.5352 38.4571C34.1525 38.6735 33.7699 38.8918 33.3872 39.1083C33.1806 39.2251 33.1557 39.2136 33.1557 38.9761C33.1557 37.1412 33.1576 35.3044 33.1519 33.4696C33.1519 33.2799 33.2322 33.1765 33.3834 33.0865C34.3821 32.4851 35.379 31.8779 36.374 31.2727C36.9824 30.903 37.5889 30.5315 38.1974 30.1618C38.2414 30.135 38.2835 30.1062 38.3294 30.0833C38.4021 30.045 38.4423 30.0756 38.4461 30.1522C38.4499 30.2173 38.4499 30.2844 38.4499 30.3495C38.4499 31.2899 38.4499 32.2284 38.4499 33.1689H38.4519Z" fill="#F0B91C"/>
</svg>
