<svg width="185" height="40" viewBox="0 0 185 40" fill="none" xmlns="http://www.w3.org/2000/svg">
<path d="M53.0947 25.2806V10.2861H54.877V23.6698H61.7496V25.2806H53.0947Z" fill="white"/>
<path d="M64.1863 12.1577C63.8575 12.1577 63.5714 12.0441 63.3346 11.8169C63.0979 11.5896 62.9795 11.3123 62.9795 10.9915C62.9795 10.6707 63.0979 10.3933 63.3346 10.1661C63.5714 9.93881 63.8575 9.8252 64.1863 9.8252C64.5151 9.8252 64.8012 9.93881 65.038 10.1661C65.2747 10.3933 65.3931 10.6707 65.3931 10.9915C65.3931 11.3123 65.2747 11.5896 65.038 11.8169C64.8012 12.0441 64.5184 12.1577 64.1863 12.1577ZM63.3346 25.2808V14.0291H65.0182V25.2808H63.3346Z" fill="white"/>
<path d="M72.2471 25.5212C71.5402 25.5212 70.9713 25.3975 70.5438 25.1536C70.113 24.9096 69.7842 24.6289 69.554 24.3181C69.3238 24.0074 69.143 23.75 69.018 23.5495H68.8207V25.2806H67.1963V10.2861H68.8799V15.8201H69.018C69.143 15.6262 69.3173 15.3756 69.5441 15.0715C69.7678 14.7674 70.0933 14.4934 70.5142 14.2528C70.9351 14.0122 71.5073 13.8919 72.2274 13.8919C73.158 13.8919 73.9768 14.1291 74.6838 14.6003C75.3908 15.0749 75.9432 15.7432 76.3411 16.6121C76.739 17.4809 76.9396 18.5068 76.9396 19.6865C76.9396 20.8661 76.7423 21.9054 76.3444 22.7809C75.9465 23.6565 75.3973 24.3315 74.6904 24.8094C73.9867 25.2839 73.1744 25.5212 72.2471 25.5212ZM72.0301 23.9706C72.7371 23.9706 73.3257 23.7768 73.8025 23.3925C74.2793 23.0082 74.6345 22.4869 74.8778 21.8386C75.1178 21.1869 75.2395 20.4618 75.2395 19.6664C75.2395 18.8711 75.1211 18.1593 74.8844 17.5244C74.6476 16.8861 74.2925 16.3815 73.819 16.0039C73.3454 15.6296 72.7503 15.4391 72.0301 15.4391C71.31 15.4391 70.7542 15.6162 70.2873 15.9671C69.8171 16.318 69.4652 16.8126 69.2219 17.4475C68.9818 18.0824 68.8602 18.821 68.8602 19.6664C68.8602 20.5119 68.9818 21.2571 69.2252 21.9054C69.4685 22.5537 69.8269 23.0583 70.3005 23.4259C70.774 23.7901 71.3494 23.9706 72.0301 23.9706Z" fill="white"/>
<path d="M83.2194 25.5213C82.1573 25.5213 81.2365 25.2807 80.4605 24.7961C79.6845 24.3116 79.0893 23.6366 78.6717 22.7677C78.2573 21.8988 78.0469 20.8896 78.0469 19.7434C78.0469 18.5972 78.2507 17.5746 78.6618 16.6957C79.0695 15.8169 79.6483 15.1285 80.3882 14.6339C81.1313 14.136 81.9994 13.8887 82.9991 13.8887C83.5745 13.8887 84.1434 13.9856 84.7123 14.1794C85.2812 14.3732 85.7974 14.6907 86.2611 15.1251C86.728 15.5629 87.0963 16.1377 87.3758 16.8561C87.652 17.5746 87.7902 18.4568 87.7902 19.5028V20.248H79.2537V18.7576H86.8694L86.0901 19.3224C86.0901 18.5705 85.975 17.9021 85.7448 17.3206C85.5146 16.7392 85.1694 16.278 84.709 15.9405C84.2486 15.603 83.6798 15.4359 83.0024 15.4359C82.325 15.4359 81.7397 15.6063 81.253 15.9438C80.7663 16.2814 80.398 16.7225 80.1382 17.2672C79.8818 17.8119 79.7535 18.3933 79.7535 19.0183V20.0041C79.7535 20.8562 79.8982 21.578 80.1876 22.1662C80.4769 22.7543 80.8847 23.2055 81.4042 23.5096C81.9271 23.8137 82.5289 23.9674 83.2161 23.9674C83.6567 23.9674 84.0612 23.9006 84.4229 23.7702C84.7846 23.6399 85.1003 23.4427 85.3634 23.1754C85.6264 22.9114 85.8303 22.5839 85.9684 22.1929L87.6126 22.6775C87.4416 23.2422 87.1522 23.7368 86.7478 24.1612C86.3433 24.589 85.8369 24.9198 85.2384 25.1571C84.6399 25.4043 83.9658 25.5213 83.2194 25.5213Z" fill="white"/>
<path d="M89.3994 25.2802V14.0286H91.0238V15.7395H91.1422C91.3461 15.1815 91.7144 14.7303 92.2471 14.3861C92.7798 14.0419 93.375 13.8682 94.0359 13.8682C94.1609 13.8682 94.3155 13.8682 94.5029 13.8748C94.687 13.8748 94.8284 13.8849 94.9271 13.8882V15.6393C94.8679 15.6259 94.7364 15.6059 94.5325 15.5791C94.3286 15.5524 94.1083 15.539 93.8781 15.539C93.3421 15.539 92.8653 15.6527 92.4411 15.8799C92.0169 16.1071 91.6881 16.4213 91.4447 16.8156C91.2047 17.2133 91.083 17.6644 91.083 18.1757V25.2802H89.3994Z" fill="white"/>
<path d="M101.47 14.0293V15.4997H95.7451V14.0293H101.47ZM97.409 11.3525H99.0926V22.0595C99.0926 22.6443 99.211 23.0721 99.4478 23.3427C99.6845 23.6134 100.063 23.7504 100.576 23.7504C100.687 23.7504 100.806 23.7437 100.927 23.7304C101.049 23.717 101.184 23.697 101.329 23.6702L101.687 25.2208C101.529 25.281 101.335 25.3311 101.108 25.3678C100.881 25.4046 100.651 25.4246 100.421 25.4246C99.53 25.4246 98.8065 25.1573 98.2475 24.6193C97.6885 24.0813 97.4123 23.3862 97.4123 22.5274V11.3525H97.409Z" fill="white"/>
<path d="M104.182 29.4882C103.893 29.4949 103.633 29.4749 103.409 29.4281C103.186 29.3813 103.024 29.3345 102.932 29.2877L103.37 27.7773L103.537 27.8174C104.106 27.951 104.583 27.9243 104.968 27.7305C105.353 27.54 105.691 27.0387 105.984 26.2267L106.3 25.3411L102.219 14.0293H104.06L107.112 23.0052H107.23L110.282 14.0293H112.123L107.431 26.9117C107.22 27.4965 106.957 27.9778 106.648 28.3621C106.339 28.743 105.977 29.0271 105.57 29.2109C105.159 29.3947 104.698 29.4882 104.182 29.4882Z" fill="white"/>
<path d="M118.402 25.2806V10.2861H127.254V11.8969H120.185V17.13H126.58V18.7408H120.185V25.2806H118.402Z" fill="white"/>
<path d="M129.99 12.1577C129.661 12.1577 129.375 12.0441 129.138 11.8169C128.902 11.5896 128.783 11.3123 128.783 10.9915C128.783 10.6707 128.902 10.3933 129.138 10.1661C129.375 9.93881 129.661 9.8252 129.99 9.8252C130.319 9.8252 130.605 9.93881 130.842 10.1661C131.078 10.3933 131.197 10.6707 131.197 10.9915C131.197 11.3123 131.078 11.5896 130.842 11.8169C130.605 12.0441 130.319 12.1577 129.99 12.1577ZM129.138 25.2808V14.0291H130.822V25.2808H129.138Z" fill="white"/>
<path d="M134.681 18.5174V25.2811H132.997V14.0294H134.621V15.8006H134.779C135.036 15.2224 135.43 14.7613 135.957 14.4104C136.486 14.0629 137.167 13.8857 138.005 13.8857C138.752 13.8857 139.406 14.0395 139.965 14.3502C140.527 14.6577 140.965 15.1255 141.277 15.7538C141.589 16.382 141.747 17.174 141.747 18.1331V25.2778H140.064V18.2568C140.064 17.3779 139.837 16.6895 139.38 16.1882C138.923 15.6869 138.304 15.4397 137.519 15.4397C136.976 15.4397 136.493 15.56 136.062 15.8006C135.631 16.0412 135.296 16.3921 135.046 16.8465C134.806 17.3044 134.681 17.8624 134.681 18.5174Z" fill="white"/>
<path d="M147.181 25.5409C146.481 25.5409 145.843 25.4039 145.271 25.1332C144.695 24.8626 144.242 24.4682 143.903 23.9503C143.567 23.4323 143.396 22.8107 143.396 22.0789C143.396 21.4339 143.521 20.9126 143.771 20.5149C144.021 20.1173 144.357 19.7998 144.778 19.5692C145.195 19.3387 145.659 19.1649 146.165 19.0513C146.672 18.9376 147.181 18.8474 147.694 18.7806C148.368 18.6937 148.914 18.6269 149.332 18.5801C149.75 18.5333 150.059 18.4531 150.253 18.3395C150.447 18.2259 150.545 18.032 150.545 17.7547V17.6945C150.545 16.976 150.351 16.418 149.967 16.0203C149.582 15.6226 148.993 15.4221 148.211 15.4221C147.428 15.4221 146.77 15.6026 146.31 15.9601C145.846 16.3177 145.524 16.702 145.34 17.113L143.715 16.5282C144.005 15.8432 144.393 15.3118 144.88 14.9275C145.366 14.5466 145.892 14.2759 146.464 14.1222C147.037 13.9685 147.599 13.8916 148.151 13.8916C148.507 13.8916 148.918 13.935 149.378 14.0186C149.842 14.1021 150.292 14.2759 150.729 14.5432C151.167 14.8072 151.532 15.2083 151.818 15.7396C152.104 16.2743 152.249 16.9861 152.249 17.8783V25.2836H150.545V23.7531H150.466C150.355 23.9937 150.164 24.2544 149.891 24.5317C149.621 24.8091 149.263 25.0497 148.816 25.2469C148.368 25.444 147.829 25.5409 147.181 25.5409ZM147.438 23.9904C148.112 23.9904 148.678 23.8567 149.141 23.5894C149.605 23.322 149.953 22.9745 150.19 22.5467C150.427 22.119 150.545 21.6779 150.545 21.2134V19.6227C150.473 19.7096 150.315 19.7898 150.075 19.86C149.835 19.9301 149.556 19.9936 149.243 20.0471C148.931 20.1006 148.625 20.1474 148.326 20.1841C148.03 20.2209 147.79 20.2509 147.612 20.271C147.171 20.3312 146.757 20.4281 146.376 20.5584C145.991 20.6887 145.685 20.8825 145.448 21.1365C145.215 21.3905 145.097 21.7414 145.097 22.1825C145.097 22.7807 145.317 23.2318 145.754 23.5359C146.192 23.84 146.757 23.9904 147.438 23.9904Z" fill="white"/>
<path d="M156.11 18.5174V25.2811H154.427V14.0294H156.051V15.8006H156.209C156.466 15.2224 156.86 14.7613 157.386 14.4104C157.916 14.0629 158.596 13.8857 159.435 13.8857C160.181 13.8857 160.836 14.0395 161.395 14.3502C161.957 14.6577 162.394 15.1255 162.707 15.7538C163.019 16.382 163.177 17.174 163.177 18.1331V25.2778H161.493V18.2568C161.493 17.3779 161.266 16.6895 160.809 16.1882C160.352 15.6869 159.734 15.4397 158.948 15.4397C158.406 15.4397 157.922 15.56 157.491 15.8006C157.061 16.0412 156.725 16.3921 156.475 16.8465C156.235 17.3044 156.11 17.8624 156.11 18.5174Z" fill="white"/>
<path d="M169.836 25.5213C168.806 25.5213 167.915 25.2707 167.165 24.7727C166.416 24.2715 165.837 23.5864 165.433 22.7142C165.028 21.842 164.824 20.8462 164.824 19.7267C164.824 18.6072 165.031 17.5679 165.449 16.6924C165.863 15.8169 166.449 15.1318 167.195 14.6339C167.945 14.136 168.816 13.8887 169.816 13.8887C170.595 13.8887 171.296 14.0357 171.92 14.3264C172.545 14.6172 173.055 15.0282 173.456 15.5595C173.857 16.0909 174.101 16.7058 174.193 17.4109H172.489C172.404 17.07 172.249 16.7459 172.022 16.4451C171.795 16.1444 171.503 15.9004 171.134 15.7166C170.769 15.5328 170.335 15.4392 169.832 15.4392C169.171 15.4392 168.596 15.613 168.099 15.9639C167.603 16.3114 167.218 16.8027 166.942 17.4376C166.666 18.0725 166.528 18.8144 166.528 19.6666C166.528 20.5187 166.662 21.2873 166.932 21.9356C167.202 22.5839 167.586 23.0852 168.086 23.4394C168.586 23.7936 169.168 23.9741 169.832 23.9741C170.497 23.9741 171.069 23.797 171.546 23.4461C172.022 23.0952 172.335 22.614 172.486 22.0024H174.189C174.097 22.6674 173.861 23.2623 173.482 23.7936C173.101 24.325 172.604 24.746 171.986 25.0568C171.368 25.3676 170.654 25.5213 169.836 25.5213Z" fill="white"/>
<path d="M180.432 25.5213C179.37 25.5213 178.449 25.2807 177.673 24.7961C176.897 24.3116 176.302 23.6366 175.885 22.7677C175.467 21.8988 175.26 20.8896 175.26 19.7434C175.26 18.5972 175.464 17.5746 175.875 16.6957C176.282 15.8169 176.861 15.1285 177.601 14.6339C178.344 14.136 179.212 13.8887 180.209 13.8887C180.784 13.8887 181.353 13.9856 181.922 14.1794C182.491 14.3732 183.007 14.6907 183.471 15.1251C183.938 15.5629 184.306 16.1377 184.585 16.8561C184.862 17.5746 185 18.4568 185 19.5028V20.248H176.463V18.7576H184.079L183.296 19.3224C183.296 18.5705 183.181 17.9021 182.951 17.3206C182.721 16.7392 182.376 16.278 181.915 15.9405C181.455 15.6063 180.886 15.4359 180.205 15.4359C179.525 15.4359 178.943 15.6063 178.459 15.9438C177.973 16.2814 177.601 16.7225 177.345 17.2672C177.088 17.8119 176.96 18.3933 176.96 19.0183V20.0041C176.96 20.8562 177.105 21.578 177.397 22.1662C177.687 22.7577 178.094 23.2055 178.614 23.5096C179.133 23.8137 179.738 23.9674 180.426 23.9674C180.866 23.9674 181.271 23.9006 181.633 23.7702C181.994 23.6399 182.31 23.4427 182.573 23.1754C182.836 22.9114 183.04 22.5839 183.178 22.1929L184.822 22.6775C184.651 23.2422 184.362 23.7368 183.957 24.1612C183.553 24.589 183.047 24.9198 182.448 25.1571C181.853 25.4043 181.179 25.5213 180.432 25.5213Z" fill="white"/>
<path d="M11.9826 0.715134L0 13.1932L6.33659 19.7898L23.791 1.61406C24.3697 1.01255 23.9488 0 23.1234 0H13.6498C13.0217 0 12.4233 0.257315 11.9826 0.715134Z" fill="#B4B4B4"/>
<path d="M14.7448 30.8244L10.7068 34.7811C10.0787 35.3959 9.08562 35.3893 8.46741 34.771L0.700411 27.0048C0.2532 26.557 0 25.9455 0 25.3072V13.1934L14.7744 28.3515C15.4419 29.0399 15.4288 30.1527 14.7448 30.8244Z" fill="white"/>
<path d="M38.3999 13.1934L29.9358 22.2127C29.3669 22.8209 28.4133 22.831 27.8346 22.2328L20.0577 14.2661C19.4823 13.6746 18.5385 13.6779 17.9663 14.2761L13.6915 18.724C13.1259 19.3121 13.1358 20.2511 13.7113 20.8293L21.2777 28.395C21.8564 28.9731 21.863 29.9222 21.2908 30.507L15.1515 36.7961C14.2341 37.7385 14.8885 39.3359 16.1939 39.3359H24.9277C25.3157 39.3359 25.6906 39.1788 25.9635 38.8981L37.9692 26.6974C38.2454 26.4167 38.3999 26.039 38.3999 25.6447V13.1934Z" fill="white"/>
<path d="M23.5406 8.79261L27.8022 4.66889C28.4073 4.08074 29.3642 4.09077 29.9594 4.69228L38.3939 13.1937L32.0902 19.9106L23.5077 11.0349C22.8993 10.4067 22.9158 9.39747 23.5406 8.79261Z" fill="#B4B4B4"/>
</svg>
