<svg width="41" height="42" viewBox="0 0 41 42" fill="none" xmlns="http://www.w3.org/2000/svg">
<g clip-path="url(#clip0_201_1232)">
<path d="M12.69 0.74L0 13.75L6.71 20.62L25.2 1.68C25.81 1.05 25.37 0 24.49 0H14.46C13.8 0 13.16 0.27 12.69 0.74Z" fill="#DADBF2"/>
<path d="M15.62 32.13L11.34 36.25C10.68 36.89 9.62 36.88 8.97 36.24L0.74 28.15C0.27 27.68 0 27.04 0 26.37V13.75L15.65 29.55C16.36 30.27 16.35 31.43 15.62 32.13Z" fill="white"/>
<path d="M40.67 13.75L31.71 23.15C31.11 23.78 30.1 23.79 29.48 23.17L21.24 14.87C20.63 14.25 19.63 14.26 19.03 14.88L14.5 19.52C13.9 20.13 13.91 21.11 14.52 21.71L22.53 29.6C23.14 30.2 23.15 31.19 22.54 31.8L16.04 38.36C15.07 39.34 15.76 41.01 17.14 41.01H26.39C26.8 41.01 27.2 40.85 27.49 40.55L40.21 27.83C40.5 27.54 40.67 27.14 40.67 26.73V13.75Z" fill="white"/>
<path d="M24.94 9.15952L29.45 4.85952C30.09 4.24952 31.1 4.25952 31.73 4.87952L40.66 13.7395L33.98 20.7395L24.88 11.4895C24.26 10.8495 24.28 9.78952 24.94 9.15952Z" fill="#DADBF2"/>
</g>
<defs>
<clipPath id="clip0_201_1232">
<rect width="41" height="42" fill="white"/>
</clipPath>
</defs>
</svg>
